<svg version="1.1" id="Layer_1" xmlns="http://www.w3.org/2000/svg" xmlns:xlink="http://www.w3.org/1999/xlink" x="0px" y="0px"
	 width="100%" viewBox="0 0 285 300" enable-background="new 0 0 285 300" xml:space="preserve">
<path fill="#47704C" opacity="1.000000" stroke="none" 
	d="
M136.000000,301.000000 
	C132.307098,301.000000 128.614182,301.000000 124.458626,300.531342 
	C123.995972,291.800476 123.995972,283.538269 123.995972,274.935852 
	C115.345139,275.082275 121.258110,282.322021 118.240326,284.653229 
	C115.991150,284.653229 113.789696,284.653229 112.103653,284.653229 
	C111.862320,281.836395 111.893188,279.343811 111.316742,277.000702 
	C111.112289,276.169647 109.445831,275.256073 108.415970,275.218201 
	C107.668411,275.190735 106.187027,276.553680 106.199333,277.276794 
	C106.333870,285.186768 106.698166,293.092865 107.000000,301.000000 
	C103.307091,301.000000 99.614182,301.000000 95.459450,300.569397 
	C94.650345,297.724121 94.945274,294.940796 93.816719,292.974518 
	C91.726822,289.333221 92.134453,286.361542 93.904663,282.803345 
	C94.969467,280.663055 94.777420,277.897461 95.168488,275.290894 
	C93.022606,275.290894 91.757904,275.290894 91.136368,275.290894 
	C89.575874,278.876465 88.213669,282.006439 86.851456,285.136414 
	C86.327431,285.083374 85.803398,285.030304 85.279373,284.977264 
	C84.491768,282.405762 83.832016,279.783813 82.848717,277.289459 
	C82.494141,276.390015 81.445892,275.351105 80.562813,275.186157 
	C79.633217,275.012482 77.692513,275.718628 77.641106,276.196198 
	C77.461098,277.868378 77.388359,279.923218 78.206642,281.264099 
	C80.968826,285.790344 80.950462,289.942841 78.340187,294.585602 
	C77.399551,296.258636 78.066605,298.835571 78.000000,301.000000 
	C74.638710,301.000000 71.277428,301.000000 67.455215,300.568115 
	C67.524391,296.837372 66.070747,295.581482 62.842049,295.983124 
	C61.695560,296.125763 60.310863,296.384430 59.395966,295.903442 
	C57.848850,295.090057 56.589073,293.730133 55.208485,292.600006 
	C56.570995,291.732727 57.838810,290.422760 59.319115,290.106079 
	C61.339615,289.673828 63.521969,289.998169 66.042213,289.998169 
	C65.842667,287.961212 65.708023,286.586761 65.545387,284.926666 
	C63.134830,284.926666 61.074581,285.244141 59.187737,284.809265 
	C58.030224,284.542450 57.138321,283.123260 56.127144,282.221558 
	C57.236946,281.484131 58.280476,280.276184 59.470539,280.108582 
	C61.847771,279.773743 64.305344,280.009308 66.475677,280.009308 
	C67.500549,276.336395 66.822197,274.662811 63.424160,274.985504 
	C61.939724,275.126495 60.430534,274.990387 58.933117,275.013947 
	C52.851849,275.109650 50.566639,277.626282 51.016193,283.681976 
	C51.132248,285.245300 51.613197,286.936615 51.200043,288.357941 
	C49.178471,295.312378 49.514854,296.719910 55.000000,301.000000 
	C37.089962,301.000000 19.179924,301.000000 1.000000,301.000000 
	C1.000000,289.980560 1.000000,278.958954 1.451762,267.468689 
	C3.400990,266.999512 4.931540,266.797913 6.389450,267.037781 
	C10.113093,267.650482 11.396910,265.568176 11.912126,262.431824 
	C13.272969,254.147736 14.510130,245.838547 16.150139,237.609833 
	C16.424564,236.232910 18.382565,234.314651 19.712446,234.185165 
	C24.162746,233.751862 28.707689,233.736237 33.159191,234.160629 
	C34.787743,234.315903 37.718208,236.721146 37.560482,237.124405 
	C36.539913,239.733688 38.272137,244.497955 32.666698,244.049942 
	C28.864721,243.746078 24.974051,243.667755 21.210787,244.159714 
	C19.487728,244.384979 17.164577,245.894531 16.547009,247.406967 
	C15.458020,250.073883 15.182189,253.179779 15.081801,256.119537 
	C14.911922,261.094238 17.834703,265.111420 22.797344,266.240845 
	C26.126772,266.998535 29.676701,266.938660 33.130455,266.969910 
	C42.721363,267.056732 42.729431,267.001709 44.768757,257.990997 
	C44.867031,257.556763 44.628571,257.046356 44.449650,256.005676 
	C38.843533,256.005676 33.196350,256.005676 27.549171,256.005676 
	C28.517319,255.093201 29.482105,255.023605 30.447874,255.005081 
	C39.866726,254.824326 45.240082,250.680786 47.643375,241.733536 
	C50.788712,230.023788 46.263077,224.005997 34.304852,224.000336 
	C28.980631,223.997803 23.656408,223.999924 18.332186,223.999924 
	C7.204000,223.999954 7.474270,224.038391 5.913529,235.008759 
	C4.672907,243.729019 2.666452,252.340317 1.000001,261.000000 
	C1.000000,174.407715 1.000000,87.815437 1.000000,1.000000 
	C84.020760,1.000000 167.041718,1.000000 250.303802,1.316595 
	C226.858200,5.887766 206.479065,17.106731 187.875275,31.828070 
	C185.227112,33.923576 183.540176,33.756935 180.886856,32.494019 
	C164.439590,24.665537 147.066147,22.078472 129.202393,25.230408 
	C110.375740,28.552240 93.990784,36.865559 80.514359,50.879578 
	C57.935734,74.358879 50.502571,102.057007 57.186886,133.525391 
	C60.206722,147.742172 66.660255,160.576324 76.843552,171.452560 
	C66.446236,184.865768 56.196865,197.983047 45.947495,211.100327 
	C47.277977,211.557892 47.994217,211.346664 48.543884,210.920563 
	C56.086773,205.073334 63.671360,199.276978 71.110512,193.299850 
	C76.462509,188.999695 81.613007,184.448715 86.931847,180.355927 
	C87.123520,181.010422 87.144646,181.429428 87.363091,181.610947 
	C102.471840,194.165558 120.016701,200.879303 139.465378,201.882904 
	C160.460114,202.966278 179.506012,196.599915 196.804993,184.272446 
	C198.519974,187.620377 200.952408,189.611511 204.322021,186.987473 
	C207.681747,184.371140 205.838974,181.583588 203.699326,178.934982 
	C231.865860,150.830017 238.555511,117.768265 226.637299,80.074142 
	C225.707687,80.441711 225.156830,80.499962 224.850555,80.804337 
	C219.462555,86.158768 214.057297,91.498184 208.808441,96.986862 
	C208.247986,97.572929 208.437454,99.104012 208.619873,100.136482 
	C210.052063,108.242828 211.278336,116.162689 210.219894,124.633614 
	C207.606583,145.548691 198.072769,162.131866 181.185394,174.338730 
	C163.463089,187.149109 143.619751,190.995575 122.367157,185.813278 
	C113.068459,183.545837 104.153549,179.949051 97.273758,173.008560 
	C99.219200,171.485687 100.866089,170.129074 102.497574,168.754196 
	C109.411774,162.927567 116.575912,157.366302 123.154732,151.182510 
	C128.738358,145.934174 128.272903,137.836136 122.851578,133.358032 
	C118.276001,129.578537 111.026863,130.015976 106.420898,135.231064 
	C98.728134,143.941177 91.542496,153.099182 84.068390,161.716599 
	C73.406868,146.855484 67.854599,130.886948 68.926567,112.670120 
	C69.889412,96.307533 75.866257,82.124817 86.581619,70.009880 
	C101.945724,52.639034 121.603065,44.841438 144.599304,46.160522 
	C151.966522,46.583115 159.226791,48.870308 166.535995,50.304401 
	C166.630386,50.970730 166.724777,51.637058 166.819168,52.303387 
	C163.295609,55.154606 160.037827,58.444832 156.196136,60.770557 
	C146.616180,66.570183 136.339783,71.305328 127.146461,77.634827 
	C116.838448,84.731766 107.066475,92.722015 97.714600,101.056648 
	C90.237236,107.720650 83.738403,115.482597 76.805260,122.757233 
	C78.169685,123.496582 78.922821,123.428879 79.580956,123.142708 
	C95.088600,116.399727 111.244423,112.651756 128.199234,113.092911 
	C131.824661,113.187241 133.503342,111.577049 135.098434,108.794846 
	C142.709747,95.519035 152.224762,83.659386 162.846466,72.713776 
	C176.173370,58.980465 191.283157,47.462246 207.964981,38.105911 
	C213.700211,34.889194 219.866684,32.441372 226.832123,29.175272 
	C221.818069,43.003880 200.004852,71.283073 191.352203,75.975342 
	C191.732559,72.267502 192.110519,68.558235 192.574020,64.009750 
	C191.305084,65.171059 190.473984,65.819221 189.775803,66.588081 
	C182.978317,74.073647 176.521393,81.900887 169.347412,89.004631 
	C158.379395,99.865273 147.129120,110.467384 135.540054,120.657707 
	C132.187805,123.605354 132.043228,126.122299 132.369583,130.008347 
	C133.042435,138.020447 133.335678,146.115677 133.014557,154.145905 
	C132.675766,162.617966 131.439377,171.054108 130.490265,180.555801 
	C136.242584,174.254028 141.527252,168.654953 146.600082,162.870102 
	C159.746094,147.878906 170.580292,131.360764 179.110825,113.322151 
	C179.755936,111.958023 181.168533,110.867783 182.412979,109.890335 
	C191.755417,102.552193 201.783691,95.950394 210.381470,87.830719 
	C226.136383,72.951935 238.888702,55.594368 247.615295,35.627499 
	C252.431580,24.607567 256.952393,13.374020 257.000000,1.000000 
	C266.649872,1.000000 276.299713,1.000000 286.000000,1.000000 
	C286.000000,75.020889 286.000000,149.041779 285.531342,223.531342 
	C271.623016,224.000000 258.183319,224.000000 244.348694,224.000000 
	C243.819870,227.371796 243.356705,230.325027 242.757141,234.148010 
	C248.295074,234.148010 252.987030,234.148010 258.101288,234.148010 
	C256.243408,245.390717 254.518219,255.830307 252.673798,266.991455 
	C255.557846,266.991455 257.516174,266.871155 259.453949,267.019379 
	C262.426239,267.246765 263.544464,265.712921 263.989716,263.022797 
	C265.224091,255.564560 267.245483,248.167877 267.699432,240.670807 
	C268.066467,234.608673 270.668976,233.677322 275.829041,233.852783 
	C279.194489,233.967209 282.608002,232.666687 286.000000,232.000000 
	C286.000000,254.919205 286.000000,277.838409 286.000000,301.000000 
	C267.646484,301.000000 249.291901,301.000000 230.464722,300.531433 
	C229.992142,293.479645 229.992142,286.896393 229.992142,280.280731 
	C232.643402,280.049347 234.579987,279.880341 236.892151,279.678558 
	C236.790802,278.034119 236.707443,276.681335 236.622620,275.304840 
	C230.266968,275.304840 224.357086,275.304840 218.055206,275.304840 
	C218.185165,276.995514 218.290329,278.363556 218.393570,279.706512 
	C220.759979,279.938385 222.678940,280.126434 225.000000,280.353851 
	C225.000000,287.449371 225.000000,294.224670 225.000000,301.000000 
	C218.645599,301.000000 212.291214,301.000000 205.589966,300.670776 
	C211.559814,293.396667 210.156799,287.801178 201.503906,284.901306 
	C200.135910,284.442871 199.044083,283.160309 197.824585,282.258789 
	C197.924545,281.778687 198.024506,281.298584 198.124466,280.818481 
	C199.694016,280.677704 201.285660,280.653381 202.826538,280.361359 
	C204.197647,280.101501 205.512543,279.545044 206.852234,279.119476 
	C206.027695,277.817596 205.496460,276.065186 204.322083,275.300629 
	C201.150848,273.236023 197.658615,274.101898 195.425171,276.584717 
	C193.895477,278.285217 192.583313,281.826630 193.360672,283.570099 
	C194.514999,286.159027 197.289490,288.714386 199.964279,289.729401 
	C202.312332,290.620331 204.262085,291.459778 203.644180,293.676697 
	C203.340775,294.765289 200.434402,295.373230 198.614517,295.724365 
	C196.848923,296.064972 194.966171,295.798248 192.111359,295.798248 
	C194.059708,298.404510 195.029846,299.702240 196.000000,301.000000 
	C190.311966,301.000000 184.623917,301.000000 178.592468,300.667633 
	C179.486908,298.645660 181.678467,297.017792 181.792542,295.255463 
	C182.218170,288.679230 181.962585,282.058868 181.962585,275.517731 
	C177.156662,275.081055 177.090469,275.079895 177.024872,278.776611 
	C176.948242,283.095398 176.958893,287.417084 177.016479,291.736389 
	C177.048935,294.170929 176.634430,295.987915 173.582932,296.013977 
	C170.634109,296.039154 169.936859,294.460114 169.979034,291.903412 
	C170.053024,287.418518 170.211792,282.912201 169.832489,278.457642 
	C169.729034,277.242706 167.831055,276.180573 166.756653,275.048309 
	C165.845779,276.177948 164.232025,277.258575 164.149185,278.445984 
	C163.837631,282.910431 163.401947,287.528961 164.230591,291.856598 
	C164.849777,295.090271 167.341888,297.965271 169.000000,301.000000 
	C163.977905,301.000000 158.955811,301.000000 153.464752,300.531433 
	C152.994583,294.760651 152.567627,289.414703 153.107391,284.168152 
	C153.691498,278.490601 149.749451,275.384430 145.483246,274.295715 
	C142.189133,273.455139 135.784058,277.433258 135.499649,281.392548 
	C135.033432,287.882904 135.770432,294.459686 136.000000,301.000000 
M193.967361,260.225220 
	C196.827469,262.460144 199.554169,266.383942 202.571991,266.622345 
	C212.784592,267.429077 223.100357,266.930023 233.656815,266.930023 
	C234.163528,263.159485 234.604721,259.876404 235.138107,255.907379 
	C224.318481,255.907379 214.408859,255.907379 204.563568,255.907379 
	C204.181702,251.158707 204.180573,251.078232 207.992218,251.024796 
	C213.482544,250.947830 218.974716,251.003586 224.466095,250.999496 
	C232.519531,250.993500 233.984512,249.078873 232.304092,240.145660 
	C223.985535,240.145660 215.558456,240.145660 206.990585,240.145660 
	C206.713577,235.679703 208.536728,233.951218 212.483032,233.983109 
	C221.433304,234.055450 230.384552,234.005875 239.607178,234.005875 
	C240.133636,230.531967 240.581146,227.579071 241.123489,224.000381 
	C231.000839,224.000381 221.705246,224.250137 212.430984,223.913025 
	C206.194336,223.686310 201.756165,226.607224 198.621979,231.241470 
	C196.783157,233.960358 196.066544,237.658112 195.577515,241.022034 
	C194.690948,247.120407 194.351654,253.298355 193.967361,260.225220 
M72.422699,267.000000 
	C80.675247,267.516541 88.563850,266.060364 91.848190,257.640228 
	C94.309067,251.331207 95.274529,244.260300 95.856781,237.439087 
	C96.721581,227.307785 93.178436,224.013245 82.999290,224.000931 
	C78.678368,223.995712 74.357368,223.985794 70.036514,224.003693 
	C61.613800,224.038574 56.240410,227.749832 54.033737,235.922119 
	C52.454624,241.770279 51.769657,247.855713 50.573357,253.812714 
	C49.636147,258.479553 51.487148,263.930267 55.913620,265.192352 
	C60.862133,266.603302 66.252533,266.464417 72.422699,267.000000 
M165.815308,239.900146 
	C164.047974,239.900146 162.280640,239.900146 159.808868,239.900146 
	C160.550446,234.339447 161.204407,229.435623 161.928635,224.004959 
	C159.448715,224.004959 157.638184,224.129807 155.851593,223.976212 
	C153.043167,223.734802 151.520096,224.858673 151.034058,227.666321 
	C148.797516,240.586288 146.502701,253.496170 144.174438,266.718384 
	C147.859848,266.718384 151.114883,266.718384 154.668533,266.718384 
	C155.482819,262.325806 156.334229,258.159851 157.004242,253.964951 
	C157.434235,251.272888 158.581604,249.850967 161.551254,249.966049 
	C165.868774,250.133392 170.197754,250.027618 174.521622,250.000671 
	C177.778610,249.980362 179.483322,250.646118 178.358978,254.705322 
	C177.307419,258.501740 177.362686,262.604736 176.932404,266.558411 
	C186.468369,267.559143 186.471130,267.559692 188.139252,258.964600 
	C188.451889,257.353760 188.803284,255.745987 189.016418,254.121017 
	C190.127640,245.648514 188.825668,243.333282 180.633392,239.226089 
	C184.752472,234.449905 188.854111,229.693939 193.465820,224.346527 
	C185.774689,223.758148 179.347946,222.632141 175.144806,230.118927 
	C173.099091,233.762833 169.490189,236.529144 165.815308,239.900146 
M104.086884,230.775482 
	C103.343056,232.567017 102.296646,234.296188 101.912018,236.161774 
	C100.750343,241.796341 99.912003,247.496674 98.824944,253.147766 
	C97.273956,261.210571 101.633781,266.851624 109.762825,266.976562 
	C116.253098,267.076324 122.746086,266.999512 129.237869,266.999847 
	C139.105682,267.000366 139.106689,267.000092 140.748199,257.269165 
	C140.772812,257.123322 140.656174,256.953674 140.374542,256.073181 
	C130.262924,256.073181 119.891273,256.073181 108.862587,256.073181 
	C109.714340,250.459381 110.491112,245.641800 111.165947,240.809967 
	C111.892151,235.610336 114.753677,233.692429 120.002182,233.911530 
	C128.111069,234.250061 136.244492,234.000763 144.697144,234.000763 
	C145.202637,230.547089 145.634964,227.593307 146.160873,224.000137 
	C136.486145,224.000137 127.694504,224.132111 118.909164,223.953690 
	C113.069099,223.835068 108.142967,225.405655 104.086884,230.775482 
z"/>
<path fill="#000000" opacity="1.000000" stroke="none" 
	d="
M256.571533,1.000000 
	C256.952393,13.374020 252.431580,24.607567 247.615295,35.627499 
	C238.888702,55.594368 226.136383,72.951935 210.381470,87.830719 
	C201.783691,95.950394 191.755417,102.552193 182.412979,109.890335 
	C181.168533,110.867783 179.755936,111.958023 179.110825,113.322151 
	C170.580292,131.360764 159.746094,147.878906 146.600082,162.870102 
	C141.527252,168.654953 136.242584,174.254028 130.490265,180.555801 
	C131.439377,171.054108 132.675766,162.617966 133.014557,154.145905 
	C133.335678,146.115677 133.042435,138.020447 132.369583,130.008347 
	C132.043228,126.122299 132.187805,123.605354 135.540054,120.657707 
	C147.129120,110.467384 158.379395,99.865273 169.347412,89.004631 
	C176.521393,81.900887 182.978317,74.073647 189.775803,66.588081 
	C190.473984,65.819221 191.305084,65.171059 192.574020,64.009750 
	C192.110519,68.558235 191.732559,72.267502 191.352203,75.975342 
	C200.004852,71.283073 221.818069,43.003880 226.832123,29.175272 
	C219.866684,32.441372 213.700211,34.889194 207.964981,38.105911 
	C191.283157,47.462246 176.173370,58.980465 162.846466,72.713776 
	C152.224762,83.659386 142.709747,95.519035 135.098434,108.794846 
	C133.503342,111.577049 131.824661,113.187241 128.199234,113.092911 
	C111.244423,112.651756 95.088600,116.399727 79.580956,123.142708 
	C78.922821,123.428879 78.169685,123.496582 76.805260,122.757233 
	C83.738403,115.482597 90.237236,107.720650 97.714600,101.056648 
	C107.066475,92.722015 116.838448,84.731766 127.146461,77.634827 
	C136.339783,71.305328 146.616180,66.570183 156.196136,60.770557 
	C160.037827,58.444832 163.295609,55.154606 166.819168,52.303387 
	C166.724777,51.637058 166.630386,50.970730 166.535995,50.304401 
	C159.226791,48.870308 151.966522,46.583115 144.599304,46.160522 
	C121.603065,44.841438 101.945724,52.639034 86.581619,70.009880 
	C75.866257,82.124817 69.889412,96.307533 68.926567,112.670120 
	C67.854599,130.886948 73.406868,146.855484 83.913017,162.023743 
	C81.552246,165.507507 79.271866,168.332077 76.991486,171.156647 
	C66.660255,160.576324 60.206722,147.742172 57.186886,133.525391 
	C50.502571,102.057007 57.935734,74.358879 80.514359,50.879578 
	C93.990784,36.865559 110.375740,28.552240 129.202393,25.230408 
	C147.066147,22.078472 164.439590,24.665537 180.886856,32.494019 
	C183.540176,33.756935 185.227112,33.923576 187.875275,31.828070 
	C206.479065,17.106731 226.858200,5.887766 250.772461,1.316595 
	C252.714355,1.000000 254.428711,1.000000 256.571533,1.000000 
z"/>
<path fill="#000000" opacity="1.000000" stroke="none" 
	d="
M1.000001,261.428467 
	C2.666452,252.340317 4.672907,243.729019 5.913529,235.008759 
	C7.474270,224.038391 7.204000,223.999954 18.332186,223.999924 
	C23.656408,223.999924 28.980631,223.997803 34.304852,224.000336 
	C46.263077,224.005997 50.788712,230.023788 47.643375,241.733536 
	C45.240082,250.680786 39.866726,254.824326 30.447874,255.005081 
	C29.482105,255.023605 28.517319,255.093201 27.549171,256.005676 
	C33.196350,256.005676 38.843533,256.005676 44.449650,256.005676 
	C44.628571,257.046356 44.867031,257.556763 44.768757,257.990997 
	C42.729431,267.001709 42.721363,267.056732 33.130455,266.969910 
	C29.676701,266.938660 26.126772,266.998535 22.797344,266.240845 
	C17.834703,265.111420 14.911922,261.094238 15.081801,256.119537 
	C15.182189,253.179779 15.458020,250.073883 16.547009,247.406967 
	C17.164577,245.894531 19.487728,244.384979 21.210787,244.159714 
	C24.974051,243.667755 28.864721,243.746078 32.666698,244.049942 
	C38.272137,244.497955 36.539913,239.733688 37.560482,237.124405 
	C37.718208,236.721146 34.787743,234.315903 33.159191,234.160629 
	C28.707689,233.736237 24.162746,233.751862 19.712446,234.185165 
	C18.382565,234.314651 16.424564,236.232910 16.150139,237.609833 
	C14.510130,245.838547 13.272969,254.147736 11.912126,262.431824 
	C11.396910,265.568176 10.113093,267.650482 6.389450,267.037781 
	C4.931540,266.797913 3.400990,266.999512 1.451762,267.000000 
	C1.000000,265.285645 1.000000,263.571289 1.000001,261.428467 
z"/>
<path fill="#000000" opacity="1.000000" stroke="none" 
	d="
M286.000000,231.555832 
	C282.608002,232.666687 279.194489,233.967209 275.829041,233.852783 
	C270.668976,233.677322 268.066467,234.608673 267.699432,240.670807 
	C267.245483,248.167877 265.224091,255.564560 263.989716,263.022797 
	C263.544464,265.712921 262.426239,267.246765 259.453949,267.019379 
	C257.516174,266.871155 255.557846,266.991455 252.673798,266.991455 
	C254.518219,255.830307 256.243408,245.390717 258.101288,234.148010 
	C252.987030,234.148010 248.295074,234.148010 242.757141,234.148010 
	C243.356705,230.325027 243.819870,227.371796 244.348694,224.000000 
	C258.183319,224.000000 271.623016,224.000000 285.531342,224.000000 
	C286.000000,226.370560 286.000000,228.741104 286.000000,231.555832 
z"/>
<path fill="#F23124" opacity="1.000000" stroke="none" 
	d="
M136.399994,301.000000 
	C135.770432,294.459686 135.033432,287.882904 135.499649,281.392548 
	C135.784058,277.433258 142.189133,273.455139 145.483246,274.295715 
	C149.749451,275.384430 153.691498,278.490601 153.107391,284.168152 
	C152.567627,289.414703 152.994583,294.760651 152.997894,300.531433 
	C151.611115,301.000000 150.222214,301.000000 148.417755,300.540009 
	C148.002182,296.844238 148.002182,293.608459 148.002182,290.437378 
	C145.275269,290.437378 143.257492,290.437378 141.569809,290.437378 
	C140.999832,294.272552 140.499924,297.636292 140.000000,301.000000 
	C138.933334,301.000000 137.866653,301.000000 136.399994,301.000000 
M141.078857,283.530243 
	C143.155457,284.168457 145.232071,284.806671 147.308670,285.444885 
	C147.680893,284.930054 148.053116,284.415222 148.425339,283.900391 
	C147.590302,282.636322 146.632553,280.253693 145.944489,280.329193 
	C144.247147,280.515442 142.673584,281.829620 141.078857,283.530243 
z"/>
<path fill="#F23224" opacity="1.000000" stroke="none" 
	d="
M107.399994,301.000000 
	C106.698166,293.092865 106.333870,285.186768 106.199333,277.276794 
	C106.187027,276.553680 107.668411,275.190735 108.415970,275.218201 
	C109.445831,275.256073 111.112289,276.169647 111.316742,277.000702 
	C111.893188,279.343811 111.862320,281.836395 112.103653,284.653229 
	C113.789696,284.653229 115.991150,284.653229 118.240326,284.653229 
	C121.258110,282.322021 115.345139,275.082275 123.995972,274.935852 
	C123.995972,283.538269 123.995972,291.800476 123.997986,300.531342 
	C122.611107,301.000000 121.222221,301.000000 119.419724,300.539948 
	C119.006111,296.848267 119.006111,293.616638 119.006111,290.236725 
	C116.102974,290.236725 113.864342,290.236725 112.320633,290.236725 
	C111.854874,294.032715 111.427437,297.516357 111.000000,301.000000 
	C109.933327,301.000000 108.866661,301.000000 107.399994,301.000000 
z"/>
<path fill="#F13124" opacity="1.000000" stroke="none" 
	d="
M169.449982,301.000000 
	C167.341888,297.965271 164.849777,295.090271 164.230591,291.856598 
	C163.401947,287.528961 163.837631,282.910431 164.149185,278.445984 
	C164.232025,277.258575 165.845779,276.177948 166.756653,275.048309 
	C167.831055,276.180573 169.729034,277.242706 169.832489,278.457642 
	C170.211792,282.912201 170.053024,287.418518 169.979034,291.903412 
	C169.936859,294.460114 170.634109,296.039154 173.582932,296.013977 
	C176.634430,295.987915 177.048935,294.170929 177.016479,291.736389 
	C176.958893,287.417084 176.948242,283.095398 177.024872,278.776611 
	C177.090469,275.079895 177.156662,275.081055 181.962585,275.517731 
	C181.962585,282.058868 182.218170,288.679230 181.792542,295.255463 
	C181.678467,297.017792 179.486908,298.645660 178.124542,300.667633 
	C175.299988,301.000000 172.599976,301.000000 169.449982,301.000000 
z"/>
<path fill="#F13124" opacity="1.000000" stroke="none" 
	d="
M78.399994,301.000000 
	C78.066605,298.835571 77.399551,296.258636 78.340187,294.585602 
	C80.950462,289.942841 80.968826,285.790344 78.206642,281.264099 
	C77.388359,279.923218 77.461098,277.868378 77.641106,276.196198 
	C77.692513,275.718628 79.633217,275.012482 80.562813,275.186157 
	C81.445892,275.351105 82.494141,276.390015 82.848717,277.289459 
	C83.832016,279.783813 84.491768,282.405762 85.279373,284.977264 
	C85.803398,285.030304 86.327431,285.083374 86.851456,285.136414 
	C88.213669,282.006439 89.575874,278.876465 91.136368,275.290894 
	C91.757904,275.290894 93.022606,275.290894 95.168488,275.290894 
	C94.777420,277.897461 94.969467,280.663055 93.904663,282.803345 
	C92.134453,286.361542 91.726822,289.333221 93.816719,292.974518 
	C94.945274,294.940796 94.650345,297.724121 94.998810,300.569397 
	C93.611107,301.000000 92.222221,301.000000 90.418198,300.592499 
	C89.040810,297.054474 88.078545,293.923981 87.116287,290.793457 
	C86.490753,290.895142 85.865227,290.996857 85.239693,291.098541 
	C84.159798,294.399017 83.079895,297.699524 82.000000,301.000000 
	C80.933327,301.000000 79.866661,301.000000 78.399994,301.000000 
z"/>
<path fill="#F23124" opacity="1.000000" stroke="none" 
	d="
M55.460636,301.000000 
	C49.514854,296.719910 49.178471,295.312378 51.200043,288.357941 
	C51.613197,286.936615 51.132248,285.245300 51.016193,283.681976 
	C50.566639,277.626282 52.851849,275.109650 58.933117,275.013947 
	C60.430534,274.990387 61.939724,275.126495 63.424160,274.985504 
	C66.822197,274.662811 67.500549,276.336395 66.475677,280.009308 
	C64.305344,280.009308 61.847771,279.773743 59.470539,280.108582 
	C58.280476,280.276184 57.236946,281.484131 56.127144,282.221558 
	C57.138321,283.123260 58.030224,284.542450 59.187737,284.809265 
	C61.074581,285.244141 63.134830,284.926666 65.545387,284.926666 
	C65.708023,286.586761 65.842667,287.961212 66.042213,289.998169 
	C63.521969,289.998169 61.339615,289.673828 59.319115,290.106079 
	C57.838810,290.422760 56.570995,291.732727 55.208485,292.600006 
	C56.589073,293.730133 57.848850,295.090057 59.395966,295.903442 
	C60.310863,296.384430 61.695560,296.125763 62.842049,295.983124 
	C66.070747,295.581482 67.524391,296.837372 66.997147,300.568115 
	C63.307091,301.000000 59.614182,301.000000 55.460636,301.000000 
z"/>
<path fill="#F23124" opacity="1.000000" stroke="none" 
	d="
M196.449982,301.000000 
	C195.029846,299.702240 194.059708,298.404510 192.111359,295.798248 
	C194.966171,295.798248 196.848923,296.064972 198.614517,295.724365 
	C200.434402,295.373230 203.340775,294.765289 203.644180,293.676697 
	C204.262085,291.459778 202.312332,290.620331 199.964279,289.729401 
	C197.289490,288.714386 194.514999,286.159027 193.360672,283.570099 
	C192.583313,281.826630 193.895477,278.285217 195.425171,276.584717 
	C197.658615,274.101898 201.150848,273.236023 204.322083,275.300629 
	C205.496460,276.065186 206.027695,277.817596 206.852234,279.119476 
	C205.512543,279.545044 204.197647,280.101501 202.826538,280.361359 
	C201.285660,280.653381 199.694016,280.677704 198.124466,280.818481 
	C198.024506,281.298584 197.924545,281.778687 197.824585,282.258789 
	C199.044083,283.160309 200.135910,284.442871 201.503906,284.901306 
	C210.156799,287.801178 211.559814,293.396667 205.121552,300.670776 
	C202.299988,301.000000 199.599976,301.000000 196.449982,301.000000 
z"/>
<path fill="#F33224" opacity="1.000000" stroke="none" 
	d="
M225.416656,301.000000 
	C225.000000,294.224670 225.000000,287.449371 225.000000,280.353851 
	C222.678940,280.126434 220.759979,279.938385 218.393570,279.706512 
	C218.290329,278.363556 218.185165,276.995514 218.055206,275.304840 
	C224.357086,275.304840 230.266968,275.304840 236.622620,275.304840 
	C236.707443,276.681335 236.790802,278.034119 236.892151,279.678558 
	C234.579987,279.880341 232.643402,280.049347 229.992142,280.280731 
	C229.992142,286.896393 229.992142,293.479645 229.996063,300.531433 
	C228.611115,301.000000 227.222214,301.000000 225.416656,301.000000 
z"/>
<path fill="#47704C" opacity="1.000000" stroke="none" 
	d="
M111.444160,301.000000 
	C111.427437,297.516357 111.854874,294.032715 112.320633,290.236725 
	C113.864342,290.236725 116.102974,290.236725 119.006111,290.236725 
	C119.006111,293.616638 119.006111,296.848267 119.003052,300.539948 
	C116.629440,301.000000 114.258888,301.000000 111.444160,301.000000 
z"/>
<path fill="#47704C" opacity="1.000000" stroke="none" 
	d="
M140.444183,301.000000 
	C140.499924,297.636292 140.999832,294.272552 141.569809,290.437378 
	C143.257492,290.437378 145.275269,290.437378 148.002182,290.437378 
	C148.002182,293.608459 148.002182,296.844238 148.001099,300.540009 
	C145.629440,301.000000 143.258896,301.000000 140.444183,301.000000 
z"/>
<path fill="#47704C" opacity="1.000000" stroke="none" 
	d="
M82.444168,301.000000 
	C83.079895,297.699524 84.159798,294.399017 85.239693,291.098541 
	C85.865227,290.996857 86.490753,290.895142 87.116287,290.793457 
	C88.078545,293.923981 89.040810,297.054474 90.001541,300.592499 
	C87.629440,301.000000 85.258888,301.000000 82.444168,301.000000 
z"/>
<path fill="#000000" opacity="1.000000" stroke="none" 
	d="
M96.968132,173.166443 
	C104.153549,179.949051 113.068459,183.545837 122.367157,185.813278 
	C143.619751,190.995575 163.463089,187.149109 181.185394,174.338730 
	C198.072769,162.131866 207.606583,145.548691 210.219894,124.633614 
	C211.278336,116.162689 210.052063,108.242828 208.619873,100.136482 
	C208.437454,99.104012 208.247986,97.572929 208.808441,96.986862 
	C214.057297,91.498184 219.462555,86.158768 224.850555,80.804337 
	C225.156830,80.499962 225.707687,80.441711 226.637299,80.074142 
	C238.555511,117.768265 231.865860,150.830017 203.699326,178.934982 
	C205.838974,181.583588 207.681747,184.371140 204.322021,186.987473 
	C200.952408,189.611511 198.519974,187.620377 196.804993,184.272446 
	C179.506012,196.599915 160.460114,202.966278 139.465378,201.882904 
	C120.016701,200.879303 102.471840,194.165558 87.363091,181.610947 
	C87.144646,181.429428 87.123520,181.010422 87.104950,180.050385 
	C90.455780,177.321167 93.711960,175.243805 96.968132,173.166443 
z"/>
<path fill="#EF3124" opacity="1.000000" stroke="none" 
	d="
M97.273758,173.008560 
	C93.711960,175.243805 90.455780,177.321167 87.026489,179.704071 
	C81.613007,184.448715 76.462509,188.999695 71.110512,193.299850 
	C63.671360,199.276978 56.086773,205.073334 48.543884,210.920563 
	C47.994217,211.346664 47.277977,211.557892 45.947495,211.100327 
	C56.196865,197.983047 66.446236,184.865768 76.843552,171.452560 
	C79.271866,168.332077 81.552246,165.507507 83.988007,162.375793 
	C91.542496,153.099182 98.728134,143.941177 106.420898,135.231064 
	C111.026863,130.015976 118.276001,129.578537 122.851578,133.358032 
	C128.272903,137.836136 128.738358,145.934174 123.154732,151.182510 
	C116.575912,157.366302 109.411774,162.927567 102.497574,168.754196 
	C100.866089,170.129074 99.219200,171.485687 97.273758,173.008560 
z"/>
<path fill="#000000" opacity="1.000000" stroke="none" 
	d="
M193.875641,259.834167 
	C194.351654,253.298355 194.690948,247.120407 195.577515,241.022034 
	C196.066544,237.658112 196.783157,233.960358 198.621979,231.241470 
	C201.756165,226.607224 206.194336,223.686310 212.430984,223.913025 
	C221.705246,224.250137 231.000839,224.000381 241.123489,224.000381 
	C240.581146,227.579071 240.133636,230.531967 239.607178,234.005875 
	C230.384552,234.005875 221.433304,234.055450 212.483032,233.983109 
	C208.536728,233.951218 206.713577,235.679703 206.990585,240.145660 
	C215.558456,240.145660 223.985535,240.145660 232.304092,240.145660 
	C233.984512,249.078873 232.519531,250.993500 224.466095,250.999496 
	C218.974716,251.003586 213.482544,250.947830 207.992218,251.024796 
	C204.180573,251.078232 204.181702,251.158707 204.563568,255.907379 
	C214.408859,255.907379 224.318481,255.907379 235.138107,255.907379 
	C234.604721,259.876404 234.163528,263.159485 233.656815,266.930023 
	C223.100357,266.930023 212.784592,267.429077 202.571991,266.622345 
	C199.554169,266.383942 196.827469,262.460144 193.875641,259.834167 
z"/>
<path fill="#000000" opacity="1.000000" stroke="none" 
	d="
M71.936661,267.000000 
	C66.252533,266.464417 60.862133,266.603302 55.913620,265.192352 
	C51.487148,263.930267 49.636147,258.479553 50.573357,253.812714 
	C51.769657,247.855713 52.454624,241.770279 54.033737,235.922119 
	C56.240410,227.749832 61.613800,224.038574 70.036514,224.003693 
	C74.357368,223.985794 78.678368,223.995712 82.999290,224.000931 
	C93.178436,224.013245 96.721581,227.307785 95.856781,237.439087 
	C95.274529,244.260300 94.309067,251.331207 91.848190,257.640228 
	C88.563850,266.060364 80.675247,267.516541 71.936661,267.000000 
M67.342796,234.327545 
	C66.320717,235.118149 64.599129,235.757584 64.390320,236.723923 
	C63.057190,242.893539 62.056953,249.135101 60.836853,255.970932 
	C67.622955,255.970932 73.584274,256.148834 79.517921,255.822952 
	C80.725418,255.756622 82.547607,253.962418 82.849899,252.674515 
	C83.899178,248.204041 83.926033,243.460800 85.249474,239.096573 
	C86.592903,234.666428 84.314796,234.118896 81.155426,234.045715 
	C76.837456,233.945679 72.514206,234.074158 67.342796,234.327545 
z"/>
<path fill="#000000" opacity="1.000000" stroke="none" 
	d="
M166.202103,239.796432 
	C169.490189,236.529144 173.099091,233.762833 175.144806,230.118927 
	C179.347946,222.632141 185.774689,223.758148 193.465820,224.346527 
	C188.854111,229.693939 184.752472,234.449905 180.633392,239.226089 
	C188.825668,243.333282 190.127640,245.648514 189.016418,254.121017 
	C188.803284,255.745987 188.451889,257.353760 188.139252,258.964600 
	C186.471130,267.559692 186.468369,267.559143 176.932404,266.558411 
	C177.362686,262.604736 177.307419,258.501740 178.358978,254.705322 
	C179.483322,250.646118 177.778610,249.980362 174.521622,250.000671 
	C170.197754,250.027618 165.868774,250.133392 161.551254,249.966049 
	C158.581604,249.850967 157.434235,251.272888 157.004242,253.964951 
	C156.334229,258.159851 155.482819,262.325806 154.668533,266.718384 
	C151.114883,266.718384 147.859848,266.718384 144.174438,266.718384 
	C146.502701,253.496170 148.797516,240.586288 151.034058,227.666321 
	C151.520096,224.858673 153.043167,223.734802 155.851593,223.976212 
	C157.638184,224.129807 159.448715,224.004959 161.928635,224.004959 
	C161.204407,229.435623 160.550446,234.339447 159.808868,239.900146 
	C162.280640,239.900146 164.047974,239.900146 166.202103,239.796432 
z"/>
<path fill="#000000" opacity="1.000000" stroke="none" 
	d="
M104.276428,230.451813 
	C108.142967,225.405655 113.069099,223.835068 118.909164,223.953690 
	C127.694504,224.132111 136.486145,224.000137 146.160873,224.000137 
	C145.634964,227.593307 145.202637,230.547089 144.697144,234.000763 
	C136.244492,234.000763 128.111069,234.250061 120.002182,233.911530 
	C114.753677,233.692429 111.892151,235.610336 111.165947,240.809967 
	C110.491112,245.641800 109.714340,250.459381 108.862587,256.073181 
	C119.891273,256.073181 130.262924,256.073181 140.374542,256.073181 
	C140.656174,256.953674 140.772812,257.123322 140.748199,257.269165 
	C139.106689,267.000092 139.105682,267.000366 129.237869,266.999847 
	C122.746086,266.999512 116.253098,267.076324 109.762825,266.976562 
	C101.633781,266.851624 97.273956,261.210571 98.824944,253.147766 
	C99.912003,247.496674 100.750343,241.796341 101.912018,236.161774 
	C102.296646,234.296188 103.343056,232.567017 104.276428,230.451813 
z"/>
<path fill="#47704C" opacity="1.000000" stroke="none" 
	d="
M141.064545,283.110291 
	C142.673584,281.829620 144.247147,280.515442 145.944489,280.329193 
	C146.632553,280.253693 147.590302,282.636322 148.425339,283.900391 
	C148.053116,284.415222 147.680893,284.930054 147.308670,285.444885 
	C145.232071,284.806671 143.155457,284.168457 141.064545,283.110291 
z"/>
<path fill="#47704C" opacity="1.000000" stroke="none" 
	d="
M67.768005,234.216125 
	C72.514206,234.074158 76.837456,233.945679 81.155426,234.045715 
	C84.314796,234.118896 86.592903,234.666428 85.249474,239.096573 
	C83.926033,243.460800 83.899178,248.204041 82.849899,252.674515 
	C82.547607,253.962418 80.725418,255.756622 79.517921,255.822952 
	C73.584274,256.148834 67.622955,255.970932 60.836853,255.970932 
	C62.056953,249.135101 63.057190,242.893539 64.390320,236.723923 
	C64.599129,235.757584 66.320717,235.118149 67.768005,234.216125 
z"/>
</svg>